<?xml version="1.0" encoding="UTF-8"?>
<svg id="Layer_1" data-name="Layer 1" xmlns="http://www.w3.org/2000/svg" viewBox="0 0 600 600">
  <defs>
    <style>
      .cls-1 {
        fill: #212121;
      }
    </style>
  </defs>
  <g id="_-Product-Icons" data-name="ðŸ”-Product-Icons">
    <g id="ic_fluent_checkbox_checked_24_regular" data-name="ic fluent checkbox checked 24 regular">
      <path id="_Color" data-name="ðŸŽ¨Color" class="cls-1" d="m508.33,0c50.63,0,91.67,41.04,91.67,91.67v416.67c0,50.63-41.04,91.67-91.67,91.67H91.67c-50.63,0-91.67-41.04-91.67-91.67V91.67C0,41.04,41.04,0,91.67,0h416.67Zm0,50H91.67c-23.01,0-41.67,18.65-41.67,41.67v416.67c0,23.01,18.65,41.67,41.67,41.67h416.67c23.01,0,41.67-18.65,41.67-41.67V91.67c0-23.01-18.65-41.67-41.67-41.67ZM233.33,381.31l215.66-215.66c9.76-9.76,25.59-9.76,35.36,0,8.88,8.88,9.68,22.76,2.42,32.55l-2.42,2.8-233.33,233.33c-8.88,8.88-22.76,9.68-32.55,2.42l-2.8-2.42-100-100c-9.76-9.76-9.76-25.59,0-35.36,8.88-8.88,22.76-9.68,32.55-2.42l2.8,2.42,82.32,82.32,215.66-215.66-215.66,215.66Z"/>
    </g>
  </g>
</svg>