<?xml version="1.0" encoding="UTF-8"?>
<svg id="Layer_1" data-name="Layer 1" xmlns="http://www.w3.org/2000/svg" viewBox="0 0 60 64">
  <defs>
    <style>
      .cls-1 {
        fill: #231f20;
      }
    </style>
  </defs>
  <path class="cls-1" d="m5.77,35.3c-.63,0-1.05.52-1.05,1.4v.34c0,.89.42,1.42,1.07,1.42.6,0,1.01-.48,1.01-1.42v-.34c0-.9-.39-1.4-1.02-1.4Z"/>
  <path class="cls-1" d="m13.02,37.88c0,.46.39.69.8.69.52,0,.94-.32.94-.79v-.54h-.92c-.54,0-.82.26-.82.64Z"/>
  <path class="cls-1" d="m24.71,35.19c-.6,0-1,.49-1,1.12h0s1.98,0,1.98,0h0c0-.65-.39-1.13-.99-1.13Z"/>
  <path class="cls-1" d="m32.2,28.38c.63,0,1.03-.5,1.03-1.4v-.3c0-.88-.41-1.39-1.03-1.39s-1.04.49-1.04,1.39v.3c0,.9.4,1.4,1.04,1.4Z"/>
  <path class="cls-1" d="m26.51,28.51c.72,0,1.02-.66,1.02-1.44v-.4c0-.81-.3-1.44-1.02-1.44s-1.02.63-1.02,1.44v.4c0,.77.29,1.44,1.02,1.44Z"/>
  <path class="cls-1" d="m36.1,35.23c-.71,0-1.02.63-1.02,1.44v.4c0,.77.29,1.44,1.02,1.44s1.02-.66,1.02-1.44v-.4c0-.81-.3-1.44-1.02-1.44Z"/>
  <path class="cls-1" d="m38.03,28.51c.72,0,1.02-.66,1.02-1.44v-.4c0-.81-.3-1.44-1.02-1.44s-1.02.63-1.02,1.44v.4c0,.77.29,1.44,1.02,1.44Z"/>
  <path class="cls-1" d="m50.27,35.19c-.6,0-1,.49-1,1.12h0s1.98,0,1.98,0h0c0-.65-.39-1.13-.99-1.13Z"/>
  <path class="cls-1" d="m44.45,35.3c-.59,0-1.03.46-1.03,1.4v.35c0,.94.43,1.4,1.04,1.4.64,0,1.06-.48,1.06-1.39v-.36c0-.88-.42-1.4-1.07-1.4Z"/>
  <path class="cls-1" d="m0,0v64h60V0H0Zm35.62,26.68c0-1.44.86-2.5,2.41-2.5s2.4,1.04,2.4,2.49v.37c0,1.53-.85,2.52-2.4,2.52s-2.41-.99-2.41-2.52v-.37Zm-5.88-.03c0-1.59.79-2.44,1.96-2.44.72,0,1.26.36,1.47.84h.06v-.78h1.36v5.16c0,1.44-1.27,1.96-2.45,1.96-1.53,0-2.23-.72-2.29-1.59h1.32c.08.35.45.6.99.6.67,0,1.06-.39,1.06-1.06v-.76h-.06c-.19.46-.73.82-1.46.82-1.17,0-1.96-.84-1.96-2.45v-.3Zm-5.64.03c0-1.44.86-2.5,2.41-2.5s2.4,1.04,2.4,2.49v.37c0,1.53-.85,2.52-2.4,2.52s-2.41-.99-2.41-2.52v-.37Zm-4.72-3.87h1.42v5.47h2.78v1.2h-4.19v-6.67Zm-11.18,14.28c0,1.57-.79,2.45-1.96,2.45-.69,0-1.21-.33-1.46-.83h-.06v2.48h-1.38v-6.91h1.36v.78h.06c.25-.51.78-.84,1.49-.84,1.15,0,1.95.86,1.95,2.44v.43Zm2.45,2.38h-1.38v-7.02h1.38v7.02Zm5.46,0h-1.29v-.63h-.06c-.2.38-.62.71-1.39.71-1.01,0-1.71-.6-1.71-1.58s.65-1.53,1.85-1.53h1.25v-.46c0-.49-.3-.76-.81-.76s-.8.27-.82.67h-1.28c.03-.86.58-1.69,2.13-1.69,1.21,0,2.13.55,2.13,1.78v3.49Zm3.32.09c-1.45,0-2.34-.97-2.34-2.51v-.42c0-1.45.87-2.46,2.34-2.46,1.33,0,2.14.84,2.17,1.88h-1.26c-.06-.42-.39-.79-.85-.79-.63,0-1.02.53-1.02,1.39v.39c0,.89.4,1.44,1.03,1.44.56,0,.82-.35.87-.74h1.26c-.1,1.21-.96,1.83-2.2,1.83Zm7.59-2.4h-3.31v.16c0,.74.43,1.21,1.05,1.21.5,0,.85-.24.95-.65h1.26c-.11.83-.78,1.69-2.22,1.69s-2.39-.88-2.39-2.49v-.45c0-1.55.97-2.44,2.33-2.44s2.32.96,2.32,2.47v.51Zm5.72,2.31h-1.37v-3.04c0-.78-.44-1.07-.97-1.07-.62,0-.98.44-.98,1.09v3.02h-1.37v-7.02h1.37v2.6h.06c.16-.36.62-.85,1.48-.85,1.04,0,1.78.66,1.78,1.93v3.34Zm5.77-2.43c0,1.53-.85,2.52-2.4,2.52s-2.41-.99-2.41-2.52v-.37c0-1.44.86-2.5,2.41-2.5s2.4,1.04,2.4,2.49v.37Zm2.44,2.43h-1.38v-7.02h1.38v7.02Zm5.94,0h-1.36v-.81h-.05c-.24.53-.78.87-1.49.87-1.25,0-1.97-.93-1.97-2.45v-.43c0-1.5.75-2.44,1.97-2.44.71,0,1.25.34,1.47.83h.05v-2.59h1.38v7.02Zm5.69-2.31h-3.31v.16c0,.74.43,1.21,1.05,1.21.5,0,.85-.24.95-.65h1.26c-.11.83-.78,1.69-2.22,1.69s-2.39-.88-2.39-2.49v-.45c0-1.55.97-2.44,2.33-2.44s2.32.96,2.32,2.47v.51Zm4.07-1.74c-.1-.03-.32-.05-.53-.05-.83,0-1.12.49-1.12,1.19v2.91h-1.41v-5.2h1.38v.73h.06c.11-.34.5-.81,1.2-.81.19,0,.33.01.42.04v1.18Z"/>
</svg>